<svg aria-hidden="true" style="position:absolute;width:0;height:0;overflow:hidden" xmlns="http://www.w3.org/2000/svg">
  <defs>
    <symbol id="bi_grid" viewBox="0 0 32 32">
      <path d="M2 5a3.004 3.004 0 0 1 3-3h6a3.004 3.004 0 0 1 3 3v6a3.004 3.004 0 0 1-3 3H5a3.004 3.004 0 0 1-3-3V5zm3-1a.997.997 0 0 0-1 1v6a.997.997 0 0 0 1 1h6a.997.997 0 0 0 1-1V5a.997.997 0 0 0-1-1H5zm13 1a3.004 3.004 0 0 1 3-3h6a3.004 3.004 0 0 1 3 3v6a3.004 3.004 0 0 1-3 3h-6a3.004 3.004 0 0 1-3-3V5zm3-1a.997.997 0 0 0-1 1v6a.997.997 0 0 0 1 1h6a.997.997 0 0 0 1-1V5a.997.997 0 0 0-1-1h-6zM2 21a3.004 3.004 0 0 1 3-3h6a3.004 3.004 0 0 1 3 3v6a3.004 3.004 0 0 1-3 3H5a3.004 3.004 0 0 1-3-3v-6zm3-1a.997.997 0 0 0-1 1v6a.997.997 0 0 0 1 1h6a.997.997 0 0 0 1-1v-6a.997.997 0 0 0-1-1H5zm13 1a3.004 3.004 0 0 1 3-3h6a3.004 3.004 0 0 1 3 3v6a3.004 3.004 0 0 1-3 3h-6a3.004 3.004 0 0 1-3-3v-6zm3-1a.997.997 0 0 0-1 1v6a.997.997 0 0 0 1 1h6a.997.997 0 0 0 1-1v-6a.997.997 0 0 0-1-1h-6z"/>
    </symbol>
    <symbol id="bi_grid-1x22x" viewBox="0 0 32 32">
      <path d="M12 2H2v28h10V2zm18 0H20v10h10V2zm0 18v10H20V20h10zM0 2a2 2 0 0 1 2-2h10a2 2 0 0 1 2 2v28a2 2 0 0 1-2 2H2a2 2 0 0 1-2-2V2zm18 0a2 2 0 0 1 2-2h10a2 2 0 0 1 2 2v10a2 2 0 0 1-2 2H20a2 2 0 0 1-2-2V2zm2 16a2 2 0 0 0-2 2v10a2 2 0 0 0 2 2h10a2 2 0 0 0 2-2V20a2 2 0 0 0-2-2H20z"/>
    </symbol>
    <symbol id="bi_grid-3x3-gap" viewBox="0 0 32 32">
      <path d="M8 4v4H4V4h4zm2 24v-4a2 2 0 0 0-2-2H4a2 2 0 0 0-2 2v4a2 2 0 0 0 2 2h4a2 2 0 0 0 2-2zm0-10v-4a2 2 0 0 0-2-2H4a2 2 0 0 0-2 2v4a2 2 0 0 0 2 2h4a2 2 0 0 0 2-2zm0-10V4a2 2 0 0 0-2-2H4a2 2 0 0 0-2 2v4a2 2 0 0 0 2 2h4a2 2 0 0 0 2-2zm10 20v-4a2 2 0 0 0-2-2h-4a2 2 0 0 0-2 2v4a2 2 0 0 0 2 2h4a2 2 0 0 0 2-2zm0-10v-4a2 2 0 0 0-2-2h-4a2 2 0 0 0-2 2v4a2 2 0 0 0 2 2h4a2 2 0 0 0 2-2zm0-10V4a2 2 0 0 0-2-2h-4a2 2 0 0 0-2 2v4a2 2 0 0 0 2 2h4a2 2 0 0 0 2-2zm-2-4v4h-4V4h4zm10 0v4h-4V4h4zM8 14v4H4v-4h4zm10 0v4h-4v-4h4zm10 0h-4v4h4v-4zM8 24v4H4v-4h4zm10 0v4h-4v-4h4zm10 0v4h-4v-4h4zM24 2a2 2 0 0 0-2 2v4a2 2 0 0 0 2 2h4a2 2 0 0 0 2-2V4a2 2 0 0 0-2-2h-4zm-2 12a2 2 0 0 1 2-2h4a2 2 0 0 1 2 2v4a2 2 0 0 1-2 2h-4a2 2 0 0 1-2-2v-4zm2 8a2 2 0 0 0-2 2v4a2 2 0 0 0 2 2h4a2 2 0 0 0 2-2v-4a2 2 0 0 0-2-2h-4z"/>
    </symbol>
    <symbol id="cup-hot" viewBox="0 0 32 32">
      <path d="M1 12a1.007 1.007 0 0 0-.779.374.997.997 0 0 0-.197.842l3.304 14.868A5.003 5.003 0 0 0 8.208 32h11.584a4.998 4.998 0 0 0 4.88-3.916l.262-1.18a6 6 0 0 0 2.601-11.708l.442-1.98A1.003 1.003 0 0 0 27.001 12h-26zm25 13a4.05 4.05 0 0 1-.632-.05l1.734-7.796A4.002 4.002 0 0 1 26 25zM5.28 27.65 2.246 14h23.508L22.72 27.65c-.148.666-.519 1.262-1.051 1.69s-1.194.66-1.877.66H8.208a2.998 2.998 0 0 1-2.928-2.35zM8.8 1.6l-.006.008-.028.038c-.146.2-.282.407-.408.62a4.003 4.003 0 0 0-.282.534c-.052.12-.068.184-.074.206v.008c.023.177.085.346.182.496.15.266.356.544.616.89l.02.024c.236.316.52.694.74 1.086.224.4.44.91.44 1.49 0 .376-.13.736-.238.988a6.142 6.142 0 0 1-.404.776 10.2 10.2 0 0 1-.506.764l-.036.05-.01.016-.004.004a1.004 1.004 0 0 1-1.4.202A1.004 1.004 0 0 1 7.2 8.4l.006-.008.028-.038c.146-.2.282-.407.408-.62.107-.171.202-.349.282-.534.052-.12.068-.184.074-.206a1.199 1.199 0 0 0-.18-.504A8.024 8.024 0 0 0 7.2 5.6l-.02-.024c-.27-.345-.517-.708-.74-1.086A3.066 3.066 0 0 1 6 3c0-.376.13-.736.238-.988.118-.276.268-.548.404-.776.159-.261.328-.516.506-.764l.05-.07A1.004 1.004 0 0 1 8.598.2 1.004 1.004 0 0 1 8.8 1.6zm6 0-.006.008-.028.038c-.146.2-.282.407-.408.62a4.003 4.003 0 0 0-.282.534c-.052.12-.068.184-.074.206v.008c.023.177.085.346.182.496.15.266.356.544.616.89l.02.024c.236.316.52.694.74 1.086.224.4.44.91.44 1.49 0 .376-.13.736-.238.988a6.142 6.142 0 0 1-.404.776 10.2 10.2 0 0 1-.506.764l-.036.05-.01.016-.004.004a1.004 1.004 0 0 1-1.4.202 1.004 1.004 0 0 1-.202-1.4l.006-.008.028-.038c.146-.2.282-.407.408-.62.107-.171.202-.349.282-.534.052-.12.068-.184.074-.206a1.199 1.199 0 0 0-.18-.504 8.024 8.024 0 0 0-.618-.89l-.02-.024c-.27-.345-.517-.708-.74-1.086A3.066 3.066 0 0 1 12 3c0-.376.13-.736.238-.988.118-.276.268-.548.404-.776.159-.261.328-.516.506-.764l.05-.07a1.004 1.004 0 0 1 1.4-.202 1.004 1.004 0 0 1 .202 1.4zm6 0-.006.008-.028.038c-.146.2-.282.407-.408.62a4.003 4.003 0 0 0-.282.534c-.052.12-.068.184-.074.206v.008c.023.177.085.346.182.496.15.266.356.544.616.89l.02.024c.236.316.52.694.74 1.086.224.4.44.91.44 1.49 0 .376-.13.736-.238.988a6.142 6.142 0 0 1-.404.776 9.875 9.875 0 0 1-.504.764l-.038.05-.01.016-.004.004a1.004 1.004 0 0 1-1.4.202 1.004 1.004 0 0 1-.202-1.4l.006-.008.028-.038c.146-.2.282-.407.408-.62.107-.171.202-.349.282-.534.052-.12.068-.184.074-.206a1.199 1.199 0 0 0-.18-.504 8.024 8.024 0 0 0-.618-.89l-.02-.024c-.27-.345-.517-.708-.74-1.086A3.066 3.066 0 0 1 18 3c0-.376.13-.736.238-.988.118-.276.268-.548.404-.776.159-.261.328-.516.506-.764l.05-.07a1.004 1.004 0 0 1 1.4-.202 1.004 1.004 0 0 1 .202 1.4z"/>
    </symbol>
        <symbol id="icon-automatic" viewBox="0 0 32 32">
      <path d="M12 7a3.004 3.004 0 0 1 3-3h2a3.004 3.004 0 0 1 3 3v2a3.004 3.004 0 0 1-3 3v2h11a.997.997 0 0 1 1 1v2a.997.997 0 0 1-1 1 .997.997 0 0 1-1-1v-1H17v1a.997.997 0 0 1-1 1 .997.997 0 0 1-1-1v-1H5v1a.997.997 0 0 1-1 1 .997.997 0 0 1-1-1v-2a.997.997 0 0 1 1-1h11v-2a3.004 3.004 0 0 1-3-3V7zm5 3a.997.997 0 0 0 1-1V7a.997.997 0 0 0-1-1h-2a.997.997 0 0 0-1 1v2a.997.997 0 0 0 1 1h2zM0 23a3.004 3.004 0 0 1 3-3h2a3.004 3.004 0 0 1 3 3v2a3.004 3.004 0 0 1-3 3H3a3.004 3.004 0 0 1-3-3v-2zm3-1a.997.997 0 0 0-1 1v2a.997.997 0 0 0 1 1h2a.997.997 0 0 0 1-1v-2a.997.997 0 0 0-1-1H3zm9 1a3.004 3.004 0 0 1 3-3h2a3.004 3.004 0 0 1 3 3v2a3.004 3.004 0 0 1-3 3h-2a3.004 3.004 0 0 1-3-3v-2zm3-1a.997.997 0 0 0-1 1v2a.997.997 0 0 0 1 1h2a.997.997 0 0 0 1-1v-2a.997.997 0 0 0-1-1h-2zm9 1a3.004 3.004 0 0 1 3-3h2a3.004 3.004 0 0 1 3 3v2a3.004 3.004 0 0 1-3 3h-2a3.004 3.004 0 0 1-3-3v-2zm3-1a.997.997 0 0 0-1 1v2a.997.997 0 0 0 1 1h2a.997.997 0 0 0 1-1v-2a.997.997 0 0 0-1-1h-2z"/>
    </symbol>
    <symbol id="diagram" viewBox="0 0 32 32">
      <path d="M12 7a3.004 3.004 0 0 1 3-3h2a3.004 3.004 0 0 1 3 3v2a3.004 3.004 0 0 1-3 3v2h11a.997.997 0 0 1 1 1v2a.997.997 0 0 1-1 1 .997.997 0 0 1-1-1v-1H17v1a.997.997 0 0 1-1 1 .997.997 0 0 1-1-1v-1H5v1a.997.997 0 0 1-1 1 .997.997 0 0 1-1-1v-2a.997.997 0 0 1 1-1h11v-2a3.004 3.004 0 0 1-3-3V7zm5 3a.997.997 0 0 0 1-1V7a.997.997 0 0 0-1-1h-2a.997.997 0 0 0-1 1v2a.997.997 0 0 0 1 1h2zM0 23a3.004 3.004 0 0 1 3-3h2a3.004 3.004 0 0 1 3 3v2a3.004 3.004 0 0 1-3 3H3a3.004 3.004 0 0 1-3-3v-2zm3-1a.997.997 0 0 0-1 1v2a.997.997 0 0 0 1 1h2a.997.997 0 0 0 1-1v-2a.997.997 0 0 0-1-1H3zm9 1a3.004 3.004 0 0 1 3-3h2a3.004 3.004 0 0 1 3 3v2a3.004 3.004 0 0 1-3 3h-2a3.004 3.004 0 0 1-3-3v-2zm3-1a.997.997 0 0 0-1 1v2a.997.997 0 0 0 1 1h2a.997.997 0 0 0 1-1v-2a.997.997 0 0 0-1-1h-2zm9 1a3.004 3.004 0 0 1 3-3h2a3.004 3.004 0 0 1 3 3v2a3.004 3.004 0 0 1-3 3h-2a3.004 3.004 0 0 1-3-3v-2zm3-1a.997.997 0 0 0-1 1v2a.997.997 0 0 0 1 1h2a.997.997 0 0 0 1-1v-2a.997.997 0 0 0-1-1h-2z"/>
    </symbol>
    <symbol id="fuel-pump" viewBox="0 0 32 32">
      <path d="M6 5a.997.997 0 0 1 1-1h10a.997.997 0 0 1 1 1v10a.997.997 0 0 1-1 1H7a.997.997 0 0 1-1-1V5z"/>
      <path d="M2 4a4.003 4.003 0 0 1 4-4h12a4.003 4.003 0 0 1 4 4v16a4.003 4.003 0 0 1 4 4v1a.997.997 0 0 0 1 1 .997.997 0 0 0 1-1v-9h-1a.997.997 0 0 1-1-1V8.75a.997.997 0 0 1 1-1h2.99c-.022-.952-.106-1.788-.402-2.444a1.944 1.944 0 0 0-.788-.916C28.432 4.17 27.872 4 27 4a.997.997 0 0 1-1-1 .997.997 0 0 1 1-1c1.128-.003 2.069.221 2.824.672.766.456 1.268 1.102 1.588 1.814.59 1.31.588 2.93.588 4.162v6.35c0 .132-.025.262-.076.383s-.124.232-.217.325a.991.991 0 0 1-.708.293h-1v9a3.004 3.004 0 0 1-3 3 2.998 2.998 0 0 1-3-3v-1a2 2 0 0 0-2-2v8h1a.997.997 0 0 1 1 1 .997.997 0 0 1-1 1h-22a.997.997 0 0 1-1-1 .997.997 0 0 1 1-1h1v-26zm18 0a2 2 0 0 0-2-2H6a2 2 0 0 0-2 2v26h16V4z"/>
    </symbol>
    <symbol id="heart" viewBox="0 0 32 32">
      <path d="m16.64 13.253-1.716-3.435c-.426-.851-1.165-2.074-2.212-3.062C11.683 5.783 10.45 5.12 8.96 5.12c-3.218 0-5.76 2.546-5.76 5.606 0 2.325 1.064 3.967 3.587 6.47.647.641 1.384 1.334 2.2 2.099 2.127 1.997 4.773 4.481 7.653 7.803 2.88-3.322 5.526-5.806 7.653-7.803a108.52 108.52 0 0 0 2.2-2.099c2.523-2.504 3.587-4.145 3.587-6.47 0-3.06-2.542-5.606-5.76-5.606-1.492 0-2.723.662-3.752 1.636-1.046.989-1.786 2.212-2.212 3.062l-1.716 3.435zm.753 15.921a.993.993 0 0 1-1.168.258.98.98 0 0 1-.338-.258c-3.074-3.652-5.856-6.263-8.147-8.412-3.965-3.723-6.461-6.063-6.461-10.036 0-4.157 3.437-7.526 7.68-7.526 3.072 0 5.22 2.016 6.536 3.855.499.701.879 1.375 1.144 1.905.332-.663.715-1.3 1.144-1.905C19.098 5.214 21.247 3.2 24.319 3.2c4.243 0 7.68 3.37 7.68 7.526 0 3.972-2.496 6.313-6.461 10.036-2.291 2.15-5.073 4.764-8.147 8.412z"/>
    </symbol>
    <symbol id="hugeicons_gas-stove" viewBox="0 0 32 32">
      <path stroke-linejoin="round" stroke-linecap="round" stroke-width="2.4" d="M8 25.333h5.333M24 25.345v-.012M2.667 8c0-4.413.92-5.333 5.333-5.333h16c4.413 0 5.333.92 5.333 5.333v16c0 4.413-.92 5.333-5.333 5.333H8c-4.413 0-5.333-.92-5.333-5.333V8z"/>
      <path stroke-linejoin="round" stroke-linecap="round" stroke-width="2.4" d="M16 18.667A5.333 5.333 0 1 0 16 8a5.333 5.333 0 0 0 0 10.667zm4.667-5.334h2M16 18v2m-4.667-6.667h-2M16 8.667v-2"/>
    </symbol>
    <symbol id="ion_water-outline" viewBox="0 0 32 32">
      <path stroke-miterlimit="10" stroke-width="2" d="M25 20c0 5.523-3.477 9-9 9s-9-3.477-9-9c0-5.927 6.452-13.928 8.431-16.242a.763.763 0 0 1 .57-.263.744.744 0 0 1 .57.263c1.978 2.314 8.43 10.316 8.43 16.242z"/>
      <path stroke-linejoin="round" stroke-linecap="round" stroke-width="2" d="M21.5 20.5A4.499 4.499 0 0 1 17 25"/>
    </symbol>
    <symbol id="lucide_microwave" viewBox="0 0 32 32">
      <path stroke-linejoin="round" stroke-linecap="round" stroke-width="2" d="M26.667 5.333H5.334A2.667 2.667 0 0 0 2.667 8v14.667a2.667 2.667 0 0 0 2.667 2.667h21.333a2.667 2.667 0 0 0 2.667-2.667V8a2.667 2.667 0 0 0-2.667-2.667z"/>
      <path stroke-linejoin="round" stroke-linecap="round" stroke-width="2" d="M17.333 10.667h-8C8.597 10.667 8 11.264 8 12v6.667C8 19.403 8.597 20 9.333 20h8c.736 0 1.333-.597 1.333-1.333V12c0-.736-.597-1.333-1.333-1.333zm6.667 0V20M8 25.333V28m16-2.667V28"/>
    </symbol>
    <symbol id="map" viewBox="0 0 32 32">
      <path d="M31.634.226A.991.991 0 0 1 32 1v28a.999.999 0 0 1-.804.98l-10 2a.995.995 0 0 1-.392 0L11 30.02l-9.804 1.96a.995.995 0 0 1-1.1-.552A1.003 1.003 0 0 1 0 31V3a.999.999 0 0 1 .804-.98l10-2a.995.995 0 0 1 .392 0L21 1.98 30.804.02a.996.996 0 0 1 .83.206zM20 3.82l-8-1.6v25.96l8 1.6V3.82zm2 25.96 8-1.6V2.22l-8 1.6v25.96zm-12-1.6V2.22l-8 1.6v25.96l8-1.6z"/>
    </symbol>
    <symbol id="ph_shower" viewBox="0 0 32 32">
      <path d="M8 29.5a1.495 1.495 0 0 1-.926 1.385 1.504 1.504 0 0 1-1.635-.325 1.497 1.497 0 0 1-.326-1.635 1.5 1.5 0 0 1 2.885.574zm2.5-5.5a1.495 1.495 0 0 0-1.385.926 1.496 1.496 0 0 0 .326 1.635c.21.21.477.353.768.41s.592.028.867-.085a1.496 1.496 0 0 0 .926-1.385 1.503 1.503 0 0 0-1.5-1.5zm-8 0a1.495 1.495 0 0 0-1.385.926 1.496 1.496 0 0 0 .326 1.635c.21.21.477.353.768.41s.593.028.867-.085a1.5 1.5 0 0 0-.574-2.885zm4-4a1.495 1.495 0 0 0-1.385.926 1.496 1.496 0 0 0 .326 1.635c.21.21.477.353.768.41s.593.028.867-.085a1.5 1.5 0 0 0-.574-2.885zM32 5a.997.997 0 0 1-1 1h-3.586l-3.481 3.482-2.707 15.849a1.995 1.995 0 0 1-1.363 1.573 2.002 2.002 0 0 1-2.023-.49L5.59 14.164a2.002 2.002 0 0 1 1.086-3.389l15.842-2.709 3.775-3.775a1.007 1.007 0 0 1 .708-.293h4a.997.997 0 0 1 1 1zm-10.224 5.224L7 12.75 19.25 25l2.526-14.776z"/>
    </symbol>
    <symbol id="solar_fridge-outline" viewBox="0 0 32 32">
      <path d="M23.667 9.333a.997.997 0 0 0-1-1 .997.997 0 0 0-1 1V12a.997.997 0 0 0 1 1 .997.997 0 0 0 1-1V9.333zm0 9.334a.997.997 0 0 0-1-1 .997.997 0 0 0-1 1v2.667a.997.997 0 0 0 1 1 .997.997 0 0 0 1-1v-2.667z"/>
      <path d="M16.075 1.667h-.149c-2.451 0-4.392 0-5.911.204-1.563.211-2.828.653-3.827 1.651-.997.999-1.44 2.264-1.651 3.827-.204 1.52-.204 3.46-.204 5.911v4.149c0 2.451 0 4.392.204 5.911.211 1.563.653 2.828 1.651 3.827.613.612 1.325 1.015 2.145 1.284v.904a1 1 0 0 0 1 1h1.333a.997.997 0 0 0 1-1v-.395c1.209.061 2.62.061 4.259.061h.149c1.64 0 3.049 0 4.259-.061v.395a1 1 0 0 0 1 1h1.333a.997.997 0 0 0 1-1v-.904c.82-.269 1.533-.672 2.145-1.284.997-.999 1.44-2.264 1.651-3.827.204-1.52.204-3.46.204-5.911v-4.148c0-2.451 0-4.392-.204-5.911-.211-1.563-.653-2.828-1.651-3.827-.999-.997-2.264-1.44-3.827-1.651-1.52-.204-3.46-.204-5.911-.204zM7.603 4.936c.564-.564 1.337-.903 2.679-1.083 1.371-.184 3.176-.187 5.719-.187s4.349.003 5.72.187c1.34.18 2.113.519 2.677 1.083s.903 1.337 1.083 2.679c.184 1.371.187 3.176.187 5.719v1H6.335v-1c0-2.543.003-4.348.187-5.72.18-1.34.519-2.113 1.083-2.677zm-1.27 11.397h19.333v1c0 2.543-.003 4.349-.187 5.72-.18 1.34-.519 2.113-1.083 2.677s-1.337.903-2.679 1.083c-1.371.184-3.176.187-5.719.187s-4.348-.003-5.72-.187c-1.34-.18-2.113-.519-2.677-1.083s-.903-1.337-1.083-2.679c-.184-1.369-.187-3.176-.187-5.719v-1z"/>
    </symbol>
    <symbol id="star" viewBox="0 0 32 32">
      <path stroke-width="2.4" d="M12.4 9.394 16 2.572l3.6 6.822a2.2 2.2 0 0 0 1.571 1.141l7.601 1.315-5.376 5.532a2.2 2.2 0 0 0-.6 1.846l1.098 7.635-6.922-3.404a2.199 2.199 0 0 0-1.941 0l-6.922 3.404 1.098-7.635a2.2 2.2 0 0 0-.6-1.846L3.231 11.85l7.601-1.315a2.202 2.202 0 0 0 1.571-1.141zm16.635 2.185zM7.767 27.031z"/>
    </symbol>
    <symbol id="tv" viewBox="0 0 32 32">
      <path d="M0 8s0-4 4-4h24s4 0 4 4v12s0 4-4 4h-8c0 1.333.167 2.333.5 3H22a.997.997 0 0 1 1 1 .997.997 0 0 1-1 1H10a.997.997 0 0 1-1-1 .997.997 0 0 1 1-1h1.5c.333-.667.5-1.667.5-3H4s-4 0-4-4V8zm2.796-1.71c-.22.153-.395.361-.508.604A3.013 3.013 0 0 0 2 8.02V20c0 .65.156 1.004.29 1.204.14.208.341.377.604.508.338.162.703.259 1.076.286l.05.002H28c.65 0 1.004-.156 1.204-.29.22-.153.395-.361.508-.604.162-.338.259-.703.286-1.076l.002-.05V8c0-.65-.156-1.004-.29-1.204a1.511 1.511 0 0 0-.604-.508A3.018 3.018 0 0 0 27.98 6H4c-.65 0-1.004.156-1.204.29z"/>
    </symbol>
    <symbol id="wind" viewBox="0 0 32 32">
      <path d="M25 4a4.997 4.997 0 0 0-5 5 .997.997 0 0 1-1 1 .997.997 0 0 1-1-1 7.002 7.002 0 0 1 8.366-6.865 7.003 7.003 0 0 1 5.102 9.544c-.53 1.279-1.427 2.372-2.578 3.142s-2.504 1.18-3.889 1.18h-24a.997.997 0 0 1-1-1 .997.997 0 0 1 1-1h24a4.997 4.997 0 0 0 5-5 5.002 5.002 0 0 0-5-5zM11 6a2 2 0 0 0-2 2 .997.997 0 0 1-1 1 .997.997 0 0 1-1-1 4.004 4.004 0 0 1 2.469-3.695A4 4 0 1 1 11 12H1a.997.997 0 0 1-1-1 .997.997 0 0 1 1-1h10a2 2 0 0 0 0-4zM0 19a.997.997 0 0 1 1-1h20.084a5.998 5.998 0 0 1 4.242 10.243 5.996 5.996 0 0 1-6.539 1.301 6.004 6.004 0 0 1-3.704-5.543.997.997 0 0 1 1-1 .997.997 0 0 1 1 1 4.004 4.004 0 0 0 2.469 3.695 3.992 3.992 0 0 0 4.359-.867 4 4 0 0 0-2.828-6.828H.999a.997.997 0 0 1-1-1z"/>
    </symbol>
    <symbol id="ui-radios" viewBox="0 0 32 32">
      <path d="M14 5a.997.997 0 0 1 1-1h14a.997.997 0 0 1 1 1v2a.997.997 0 0 1-1 1H15a.997.997 0 0 1-1-1V5zM0 24a5.996 5.996 0 0 1 6-6 6.002 6.002 0 0 1 4.243 10.243A6 6 0 0 1 0 24zm14-3a.997.997 0 0 1 1-1h14a.997.997 0 0 1 1 1v2a.997.997 0 0 1-1 1H15a.997.997 0 0 1-1-1v-2zm0-10a.997.997 0 0 1 1-1h10a.997.997 0 0 1 1 1 .997.997 0 0 1-1 1H15a.997.997 0 0 1-1-1zm0 16a.997.997 0 0 1 1-1h10a.997.997 0 0 1 1 1 .997.997 0 0 1-1 1H15a.997.997 0 0 1-1-1zM6 2a5.99 5.99 0 0 0-4.243 1.758A6.01 6.01 0 0 0-.001 8.001a5.99 5.99 0 0 0 1.758 4.243A6.01 6.01 0 0 0 6 14.002a5.996 5.996 0 0 0 6-6 5.996 5.996 0 0 0-6-6zm0 9a3.004 3.004 0 0 1-3-3 3.004 3.004 0 0 1 3-3 3.004 3.004 0 0 1 3 3 3.004 3.004 0 0 1-3 3z"/>
    </symbol>
    <symbol id="icon-A" viewBox="0 0 29 32">
      <path d="M10.816 31.242c-1.856 0-3.497-.303-4.924-.909-1.414-.619-2.525-1.553-3.333-2.803s-1.212-2.841-1.212-4.773c0-1.591.271-2.948.814-4.072.543-1.136 1.3-2.064 2.273-2.784s2.102-1.269 3.39-1.648c1.3-.379 2.702-.625 4.205-.739 1.629-.126 2.936-.278 3.92-.455.997-.189 1.717-.448 2.159-.777.442-.341.663-.789.663-1.345v-.076c0-.758-.29-1.338-.871-1.742s-1.326-.606-2.235-.606c-.997 0-1.812.221-2.443.663-.619.429-.991 1.092-1.117 1.989H2.484A9.904 9.904 0 0 1 4.17 6.279c1.01-1.503 2.481-2.702 4.413-3.598 1.932-.909 4.343-1.364 7.235-1.364 2.083 0 3.952.246 5.606.739 1.654.48 3.062 1.155 4.224 2.026 1.162.859 2.045 1.869 2.651 3.03a7.781 7.781 0 0 1 .928 3.75v19.924h-9.773v-4.091h-.227c-.581 1.086-1.288 1.963-2.121 2.633a7.806 7.806 0 0 1-2.822 1.458c-1.048.303-2.203.454-3.466.454zm3.409-6.59a5.17 5.17 0 0 0 2.235-.492c.707-.328 1.282-.802 1.723-1.42s.663-1.37.663-2.254v-2.424c-.278.114-.574.221-.89.322a13.15 13.15 0 0 1-.985.284 25.503 25.503 0 0 1-2.291.454c-.808.126-1.471.335-1.989.625-.505.278-.884.625-1.136 1.042a2.62 2.62 0 0 0-.36 1.364c0 .808.284 1.427.852 1.856s1.294.644 2.178.644z"/>
    </symbol>
    <symbol id="icon-C" viewBox="0 0 32 32">
      <path d="M17.65 31.318c-3.157 0-5.859-.625-8.106-1.875-2.247-1.263-3.971-3.018-5.17-5.265-1.2-2.26-1.799-4.88-1.799-7.86s.6-5.593 1.799-7.841c1.2-2.26 2.923-4.015 5.17-5.265 2.248-1.263 4.95-1.894 8.106-1.894 2.854 0 5.322.518 7.405 1.553 2.096 1.023 3.719 2.475 4.867 4.356 1.149 1.869 1.73 4.066 1.742 6.591h-9.697c-.139-1.528-.581-2.689-1.326-3.485-.732-.808-1.679-1.212-2.841-1.212-.909 0-1.705.265-2.386.795-.682.518-1.212 1.307-1.591 2.367-.379 1.048-.568 2.367-.568 3.958s.189 2.917.568 3.977c.379 1.048.909 1.837 1.591 2.367.682.518 1.477.776 2.386.776.77 0 1.452-.177 2.045-.53.593-.366 1.073-.896 1.439-1.591.379-.707.606-1.566.682-2.576h9.697c-.038 2.563-.625 4.798-1.761 6.705-1.136 1.894-2.746 3.359-4.829 4.394-2.071 1.035-4.545 1.553-7.424 1.553z"/>
    </symbol>
    <symbol id="icon-E" viewBox="0 0 32 32">
      <path d="M16.658 31.318c-3.106 0-5.783-.593-8.03-1.78-2.235-1.199-3.958-2.917-5.17-5.152-1.2-2.247-1.799-4.937-1.799-8.068 0-3.005.606-5.631 1.818-7.879S6.4 4.443 8.61 3.193c2.21-1.25 4.817-1.875 7.822-1.875 2.197 0 4.186.341 5.966 1.023s3.302 1.673 4.564 2.973c1.263 1.288 2.235 2.854 2.917 4.697s1.023 3.92 1.023 6.231v2.424H4.917v-5.758h16.364c-.013-.833-.227-1.566-.644-2.197a4.094 4.094 0 0 0-1.648-1.496c-.682-.366-1.458-.549-2.33-.549-.846 0-1.622.183-2.33.549a4.414 4.414 0 0 0-1.705 1.477c-.417.631-.638 1.37-.663 2.216v6.212c0 .934.196 1.768.587 2.5s.953 1.307 1.686 1.724c.732.417 1.616.625 2.652.625.72 0 1.376-.101 1.97-.303a4.428 4.428 0 0 0 1.553-.871c.429-.391.745-.859.947-1.402h9.545c-.328 2.02-1.105 3.775-2.33 5.265-1.225 1.477-2.847 2.626-4.867 3.447-2.008.808-4.356 1.212-7.045 1.212z"/>
    </symbol>
    <symbol id="icon-K" viewBox="0 0 28 32">
      <path d="m9.418 25.515.061-9.939h1.091l5.636-7.818H25.6L16.146 19.94h-2.364l-4.364 5.576zM1.903 31.03V0h8.364v31.03H1.903zm14.364 0-5.333-9.212 5.455-5.939 9.455 15.152h-9.576z"/>
    </symbol>
    <symbol id="icon-L" viewBox="0 0 11 32">
      <path d="M9.617 0v31.03H1.253V0h8.364z"/>
    </symbol>
    <symbol id="icon-R" viewBox="0 0 21 32">
      <path d="M1.206 30.788V1.697h10.152v5.53h.303c.53-2.045 1.37-3.542 2.519-4.489 1.162-.947 2.519-1.42 4.072-1.42.455 0 .903.038 1.345.114.455.063.89.158 1.307.284v8.92c-.518-.177-1.155-.309-1.913-.398s-1.408-.133-1.951-.133c-1.023 0-1.944.234-2.765.701a4.936 4.936 0 0 0-1.913 1.932c-.467.821-.701 1.787-.701 2.898v15.152H1.206z"/>
    </symbol>
    <symbol id="icon-S" viewBox="0 0 32 32">
      <path d="M30.38 11.167h-9.621c-.05-.593-.259-1.105-.625-1.534s-.84-.758-1.42-.985a4.819 4.819 0 0 0-1.894-.36c-.896 0-1.667.164-2.311.492s-.96.795-.947 1.402c-.013.429.17.827.549 1.193.391.366 1.143.65 2.254.852l5.909 1.061c2.98.543 5.196 1.458 6.648 2.746 1.465 1.275 2.203 2.986 2.216 5.133-.013 2.071-.631 3.87-1.856 5.398-1.212 1.515-2.872 2.689-4.981 3.523-2.096.821-4.489 1.231-7.178 1.231-4.444 0-7.923-.909-10.436-2.727-2.5-1.818-3.895-4.217-4.186-7.197H12.88c.139.922.593 1.635 1.364 2.14.783.492 1.768.739 2.955.739.96 0 1.749-.164 2.367-.492.631-.328.953-.795.966-1.402-.013-.556-.29-.997-.833-1.326-.53-.328-1.364-.593-2.5-.795l-5.152-.909c-2.967-.518-5.189-1.503-6.667-2.955s-2.21-3.321-2.197-5.606c-.013-2.02.518-3.731 1.591-5.133 1.086-1.414 2.633-2.487 4.64-3.22 2.02-.745 4.413-1.117 7.178-1.117 4.205 0 7.519.871 9.943 2.614 2.437 1.742 3.718 4.154 3.845 7.235z"/>
    </symbol>
    <symbol id="icon-T" viewBox="0 0 28 32">
      <path d="M0 6.788V0h26.97v6.788h-9.333v24.243H9.334V6.788H.001z"/>
    </symbol>
    <symbol id="icon-U" viewBox="0 0 32 32">
      <path d="M21.463 18.061V1.697h10.455v29.091h-9.924v-5.53h-.303c-.631 1.856-1.736 3.308-3.314 4.356-1.578 1.035-3.453 1.553-5.625 1.553-2.033 0-3.813-.467-5.341-1.402-1.515-.934-2.696-2.222-3.542-3.864-.833-1.641-1.256-3.523-1.269-5.644V1.696h10.455V18.06c.013 1.439.379 2.569 1.098 3.39.732.821 1.755 1.231 3.068 1.231.871 0 1.622-.183 2.254-.549a3.749 3.749 0 0 0 1.477-1.591c.354-.694.524-1.521.511-2.481z"/>
    </symbol>
    <symbol id="icon-V" viewBox="0 0 35 32">
      <path d="m34.23 1.697-9.773 29.091H12.336L2.563 1.697h10.985l4.697 19.242h.303l4.697-19.242H34.23z"/>
    </symbol>
  </defs>
</svg>
